# xmcd
#
# Track frame offsets: 
#        150
#        13858
#        27051
#        40681
#        53875
#        65456
#        80204
#        91425
#        99095
#        112720
#        128423
#        140403
#        158572
#        171980
#        188792
#        203909
#        217199
#        234832
#        249733
#        264447
#        277620
#        285907
#        299550
#
# Disc length: 4257 seconds
#
# Revision: 0
# Processed by: cddbd v1.5.1PL0 Copyright (c) Steve Scherf et al.
# Submitted via: ExactAudioCopy v0.95a5
#
DISCID=39109f17
DTITLE=Funny van Dannen - Uruguay
DYEAR=1999
DGENRE=Blues
TTITLE0=Ich bin nicht mehr jung
TTITLE1=Der Fatalist
TTITLE2=Uruguay
TTITLE3=Sprechteil
TTITLE4=Tütensuppen
TTITLE5=Lesbische schwarze behinderte
TTITLE6=So läßt man sich nicht gehen
TTITLE7=Frau am Steuer
TTITLE8=ICE
TTITLE9="Killing me softly" pfeifen
TTITLE10=Wo kommen die Gedanken her
TTITLE11=Nachdenken im Auto
TTITLE12=Berlin International
TTITLE13=Jan Ullrich
TTITLE14=Ich liebe jazz
TTITLE15=Novemberlied
TTITLE16=Evangelisches Mädchen
TTITLE17=Adam and Eva
TTITLE18=Homebanking
TTITLE19=Plastikball
TTITLE20=Hochhaus
TTITLE21=Chanson aus Paris
TTITLE22=Ich muß immer an die Frauen denken
EXTD=
EXTT0=
EXTT1=
EXTT2=
EXTT3=
EXTT4=
EXTT5=
EXTT6=
EXTT7=
EXTT8=
EXTT9=
EXTT10=
EXTT11=
EXTT12=
EXTT13=
EXTT14=
EXTT15=
EXTT16=
EXTT17=
EXTT18=
EXTT19=
EXTT20=
EXTT21=
EXTT22=
PLAYORDER=
